<svg xmlns="http://www.w3.org/2000/svg" width="600" height="600" viewBox="0 0 600 600"><rect width="100%" height="100%" fill="#DDDDDD"/><path fill="#999999" d="M144.58 285.16v20.28q2.08-.05 3.81-.86 1.73-.81 2.97-2.18 1.24-1.36 1.93-3.18.69-1.83.69-3.93 0-2.05-.69-3.88-.69-1.82-1.93-3.2-1.24-1.37-2.97-2.18-1.73-.81-3.81-.87Zm-6.88 20.28v-20.28q-2.11.06-3.82.87-1.72.81-2.96 2.18-1.24 1.38-1.91 3.2-.68 1.83-.68 3.88 0 2.1.68 3.93.67 1.82 1.91 3.18 1.24 1.37 2.96 2.18 1.71.81 3.82.86Zm6.88-30.43v4.56q3.65.11 6.7 1.38 3.05 1.27 5.25 3.4 2.2 2.14 3.44 4.94 1.25 2.81 1.25 6 0 3.21-1.25 6.03-1.24 2.82-3.44 4.96-2.2 2.13-5.25 3.4t-6.7 1.38v4.64h-6.88v-4.64q-3.62-.11-6.67-1.39-3.05-1.29-5.26-3.41-2.22-2.12-3.46-4.94-1.24-2.82-1.24-6.03 0-3.19 1.24-6 1.24-2.8 3.46-4.92 2.21-2.12 5.26-3.39t6.67-1.41v-4.56h6.88Zm33.84 12.56q3.07 0 5.6 1 2.52.99 4.32 2.83 1.79 1.84 2.77 4.48.97 2.65.97 5.92 0 3.29-.97 5.94-.98 2.64-2.77 4.5-1.8 1.87-4.32 2.87-2.53.99-5.6.99-3.11 0-5.65-.99-2.54-1-4.33-2.87-1.8-1.86-2.78-4.5-.99-2.65-.99-5.94 0-3.27.99-5.92.98-2.64 2.78-4.48 1.79-1.84 4.33-2.83 2.54-1 5.65-1Zm0 23.41q3.45 0 5.11-2.33 1.66-2.32 1.66-6.8t-1.66-6.83q-1.66-2.35-5.11-2.35-3.51 0-5.2 2.36-1.69 2.36-1.69 6.82 0 4.45 1.69 6.79t5.2 2.34ZM220.94 288v4.94h-9.88v22.76h-6.67v-22.76h-9.86V288h26.41Zm16.2-.43q3.08 0 5.6 1 2.53.99 4.32 2.83 1.8 1.84 2.77 4.48.97 2.65.97 5.92 0 3.29-.97 5.94-.97 2.64-2.77 4.5-1.79 1.87-4.32 2.87-2.52.99-5.6.99-3.1 0-5.64-.99-2.54-1-4.34-2.87-1.79-1.86-2.78-4.5-.98-2.65-.98-5.94 0-3.27.98-5.92.99-2.64 2.78-4.48 1.8-1.84 4.34-2.83 2.54-1 5.64-1Zm0 23.41q3.46 0 5.12-2.33 1.66-2.32 1.66-6.8t-1.66-6.83q-1.66-2.35-5.12-2.35-3.51 0-5.2 2.36-1.68 2.36-1.68 6.82 0 4.45 1.68 6.79 1.69 2.34 5.2 2.34Zm38.23.16h4.97q2.11 0 3.34-1.03 1.22-1.03 1.22-2.81 0-.75-.2-1.41-.2-.67-.71-1.15-.52-.49-1.39-.76-.88-.27-2.23-.27h-5v7.43Zm4.38-18.8h-4.38v7.27h4.38q.97 0 1.78-.29.81-.28 1.4-.81.6-.52.92-1.24.32-.71.32-1.58 0-.62-.21-1.23-.22-.6-.73-1.08-.51-.47-1.36-.75-.85-.29-2.12-.29ZM269.03 288h10.91q2.61 0 4.52.51 1.9.51 3.14 1.4 1.25.9 1.84 2.12.59 1.23.59 2.66 0 .9-.23 1.85-.23.96-.81 1.85-.58.89-1.58 1.62-.99.73-2.53 1.14 1.37.29 2.51.82 1.13.53 1.94 1.32.81.8 1.26 1.87.44 1.06.44 2.39 0 2.1-.87 3.64-.88 1.54-2.35 2.54-1.48 1-3.41 1.48-1.93.49-4.03.49h-11.34V288Zm27.35 0h6.69v27.7h-6.69V288Zm7.61-8.07q0 .86-.35 1.61-.35.76-.93 1.33-.58.56-1.36.9-.79.34-1.68.34-.86 0-1.63-.34-.77-.34-1.34-.9-.56-.57-.9-1.33-.34-.75-.34-1.61 0-.9.34-1.68.34-.78.9-1.35.57-.57 1.34-.9.77-.34 1.63-.34.89 0 1.68.34.78.33 1.36.9.58.57.93 1.35.35.78.35 1.68Zm13.39 31.02h10.97V293.1h-6.81q-.27 3.48-.67 6.28-.41 2.79-.95 4.98-.54 2.19-1.17 3.81-.64 1.62-1.37 2.78Zm17.45-.19h5.07v12.23q0 .92-.52 1.46-.53.54-1.37.54h-4.16v-9.29h-20.73v7.4q0 .7-.45 1.29-.44.6-1.39.6h-4.21v-14.04h.78q.95 0 1.84-.26.89-.25 1.71-1.07.83-.8 1.57-2.33.74-1.53 1.34-4.08.59-2.55 1.04-6.28.44-3.72.71-8.93h18.77v22.76Zm30.86-19.33-1.76 2.43q-.29.38-.58.59-.28.22-.82.22-.51 0-1-.31t-1.16-.71q-.68-.39-1.61-.7-.93-.31-2.31-.31-1.75 0-3.07.64-1.33.63-2.2 1.82-.88 1.19-1.31 2.87-.44 1.69-.44 3.83 0 2.21.48 3.94.47 1.73 1.36 2.9.89 1.17 2.16 1.78 1.27.61 2.86.61 1.59 0 2.58-.39t1.66-.87q.68-.47 1.18-.86.49-.39 1.12-.39.81 0 1.21.62l1.92 2.43q-1.11 1.3-2.41 2.17-1.29.88-2.68 1.41-1.39.52-2.86.74-1.48.21-2.93.21-2.57 0-4.84-.95-2.26-.96-3.97-2.8-1.7-1.83-2.68-4.49-.99-2.66-.99-6.06 0-3.06.88-5.66.88-2.61 2.58-4.51 1.7-1.9 4.21-2.98t5.78-1.08q3.1 0 5.44 1 2.33.99 4.2 2.86Zm24.24-3.43h5.35l-15.09 35.31q-.3.71-.77 1.07-.48.36-1.45.36H373l5.19-11.12L366.98 288h5.86q.79 0 1.23.38.45.37.66.86l5.89 14.36q.3.73.5 1.46t.39 1.49q.24-.76.49-1.5.24-.74.54-1.47l5.56-14.34q.21-.54.71-.89t1.12-.35Zm32.43 0v4.94h-9.88v22.76h-6.67v-22.76h-9.86V288h26.41Zm21.41 0h6.67v27.7h-6.67v-12.26h-10.8v12.26h-6.67V288h6.67v10.5h10.8V288Zm34.89 3.43-1.68 2.21q-.3.38-.58.6-.28.21-.8.21-.51 0-1.02-.28-.51-.29-1.2-.62-.69-.34-1.64-.62-.94-.29-2.32-.29-3 0-4.78 1.76-1.78 1.75-2.27 4.88h11.7v4.54h-11.78q.46 3.51 2.33 5.36 1.86 1.85 4.64 1.85 1.05 0 1.85-.18.8-.17 1.39-.41.59-.25 1.05-.56.46-.31.84-.55.38-.25.73-.42.35-.18.78-.18.78 0 1.22.6l1.81 2.24q-1.11 1.3-2.41 2.17-1.29.88-2.68 1.41-1.39.52-2.87.74-1.47.21-2.93.21-2.56 0-4.83-.95-2.27-.96-3.97-2.8-1.7-1.83-2.68-4.49-.99-2.66-.99-6.06 0-3.06.88-5.66.88-2.61 2.58-4.51 1.7-1.9 4.21-2.98t5.78-1.08q3.1 0 5.44 1 2.33.99 4.2 2.86Z"/></svg>