<svg xmlns="http://www.w3.org/2000/svg" viewBox="1.68398 -0.001 114.6 27.82">
	<path d="M35.503 23.81h-2.571a.22.22 0 0 0-.217.224v.857c0 .12.094.223.217.223h1.241v1.274c-.172.04-.462.08-.913.08-1.53 0-2.449-.811-2.449-2.166s.957-2.16 2.566-2.16c.74 0 1.174.132 1.475.246l.1.04a.24.24 0 0 0 .167 0 .2.2 0 0 0 .112-.126l.289-.851a.225.225 0 0 0-.123-.28l-.094-.04c-.356-.149-1.046-.309-1.91-.309-2.504 0-4.19 1.417-4.202 3.52 0 1.035.407 1.966 1.12 2.56.728.6 1.669.892 2.882.892.952 0 1.776-.195 2.294-.355l.072-.022a.23.23 0 0 0 .156-.212v-3.16a.22.22 0 0 0-.217-.223zM48.472 27.211c-.14-.223-.345-.988-.512-1.606q-.2-.744-.651-1.137c.612-.365.962-.948.962-1.628 0-.577-.25-1.103-.69-1.435-.506-.394-1.208-.571-2.27-.571-.674 0-1.359.051-1.832.131l-.089.018a.214.214 0 0 0-.178.217v6.297c0 .12.094.223.217.223h1.136a.22.22 0 0 0 .217-.223V25.04h.54c.7.023.957.24 1.135.96.25.954.39 1.383.523 1.577l.034.046a.2.2 0 0 0 .178.097h1.202c.078 0 .15-.046.19-.115a.24.24 0 0 0-.006-.228l-.1-.166zm-1.77-4.28c0 .514-.507.846-1.297.846h-.629V22.13c.134-.011.328-.028.595-.028.886 0 1.33.285 1.33.828M59.42 20.771c-2.148 0-3.65 1.469-3.65 3.577 0 2.109 1.458 3.469 3.545 3.469s3.651-1.44 3.651-3.589-1.425-3.457-3.545-3.457m1.927 3.497c0 1.549-.997 2.24-1.976 2.24-.98 0-1.97-.68-1.97-2.177 0-1.12.612-2.251 1.98-2.251 1.37 0 1.971 1.131 1.971 2.188zM75.573 20.874h-1.146a.22.22 0 0 0-.217.222v3.766c0 1.109-.468 1.646-1.425 1.646-1.119 0-1.353-.897-1.353-1.646v-3.766a.22.22 0 0 0-.217-.223H70.07a.22.22 0 0 0-.217.223v3.749c0 1.886 1.057 2.971 2.894 2.971s3.033-1.125 3.033-3.005v-3.715a.22.22 0 0 0-.217-.223zM88.052 21.405c-.496-.383-1.236-.577-2.204-.577-.646 0-1.258.04-1.82.12l-.09.012a.22.22 0 0 0-.183.217v6.314c0 .12.095.223.217.223h1.135a.22.22 0 0 0 .218-.223V25.28c1.19.08 2.22-.195 2.827-.749.44-.389.662-.92.662-1.571 0-.652-.267-1.195-.757-1.555zM87.245 23c0 .862-.924.994-1.48.994-.173 0-.318 0-.446-.017v-1.835c.623-.057 1.926-.108 1.926.863zM11.619 7.566a5 5 0 0 0-1.425-.612c.278-.114.557-.251.818-.411q.645-.396 1.097-1.006c.323-.434.484-.966.484-1.588 0-.675-.167-1.258-.49-1.72a3.5 3.5 0 0 0-1.19-1.069A5.4 5.4 0 0 0 9.375.617C8.268.406 7.272.451 6.292.491c-.484.018-.99.03-1.497.03H1.901a.22.22 0 0 0-.217.222v.594c0 .12.094.223.217.223h1.458V13.55H1.901a.22.22 0 0 0-.217.223v.594c0 .12.094.223.217.223h2.905c.501 0 1.008.005 1.509.017.5.011 1.018.017 1.525.017.478 0 1.03-.057 1.63-.166a6 6 0 0 0 1.754-.606 4.3 4.3 0 0 0 1.436-1.228c.406-.543.618-1.223.618-2.029 0-.731-.162-1.354-.479-1.857a3.8 3.8 0 0 0-1.169-1.171zM9.042 5.183a1.75 1.75 0 0 1-.245.714q-.175.283-.551.463c-.262.126-.646.189-1.13.189H6.75V1.526h.055q.184-.024.368-.023c.406 0 .74.051.99.16.229.097.401.234.53.428.138.212.244.486.305.823.067.366.1.817.1 1.337 0 .315-.022.635-.06.938zm-2.293 2.4h.679c.517 0 .918.103 1.18.308.284.218.495.475.629.76q.216.465.267.926.05.513.05.812-.002 1.089-.161 1.743c-.1.405-.24.72-.418.937a1.23 1.23 0 0 1-.612.411c-.457.137-1.074.137-1.614.103v-6M29.213 13.549h-1.475L22.066.13a.22.22 0 0 0-.2-.131h-.707a.22.22 0 0 0-.2.137l-5.36 13.412h-1.437a.22.22 0 0 0-.217.222v.595c0 .12.095.223.217.223h3.757a.22.22 0 0 0 .218-.223v-.595a.22.22 0 0 0-.218-.222h-1.213L18.41 9.32h3.863l1.781 4.229H22.78a.22.22 0 0 0-.218.222v.595c0 .12.095.223.218.223h6.428a.22.22 0 0 0 .217-.223v-.595a.22.22 0 0 0-.217-.222zM21.86 8.286h-3.044l1.48-3.709zM41.22 1.56h1.513a.22.22 0 0 0 .217-.223V.743a.22.22 0 0 0-.217-.223h-3.796a.22.22 0 0 0-.217.223v.594c0 .12.095.223.217.223h1.12l-2.74 5.326-3.033-5.326h.94a.22.22 0 0 0 .218-.223V.743a.22.22 0 0 0-.217-.223h-6.173a.22.22 0 0 0-.217.223v.594c0 .12.095.223.217.223h1.358l4.058 7.274v4.715h-1.459a.22.22 0 0 0-.217.222v.595c0 .12.095.223.218.223h6.323a.22.22 0 0 0 .217-.223v-.595a.22.22 0 0 0-.217-.222h-1.475V8.114l3.356-6.554zM57.616 13.549h-1.475L50.47.13a.22.22 0 0 0-.2-.131h-.707a.22.22 0 0 0-.2.137l-5.36 13.412h-1.436a.22.22 0 0 0-.217.222v.595c0 .12.094.223.217.223h3.757a.22.22 0 0 0 .217-.223v-.595a.22.22 0 0 0-.217-.222h-1.214l1.704-4.229h3.862l1.782 4.229h-1.275a.22.22 0 0 0-.217.222v.595c0 .12.094.223.217.223h6.429a.22.22 0 0 0 .217-.223v-.595a.22.22 0 0 0-.217-.222zm-7.352-5.263h-3.045l1.48-3.709zM70.775 3.12a6.1 6.1 0 0 0-1.514-1.314 8.4 8.4 0 0 0-1.77-.812c-.612-.2-1.241-.337-1.87-.417-1.302-.16-2.46-.12-3.635-.085-.606.017-1.224.028-1.842.028h-1.831a.22.22 0 0 0-.217.223v.594c0 .12.094.223.217.223h1.458V13.55h-1.458a.22.22 0 0 0-.217.223v.594c0 .12.094.223.217.223h1.831c.685 0 1.375.005 2.054.017.684.011 1.38.017 2.07.017q.735-.002 1.587-.114a9.4 9.4 0 0 0 1.742-.418c.59-.2 1.163-.474 1.703-.81a6 6 0 0 0 1.486-1.315 6.3 6.3 0 0 0 1.036-1.892c.256-.725.384-1.571.384-2.52 0-.948-.128-1.817-.384-2.537a6.3 6.3 0 0 0-1.047-1.891zm-2.282 4.617q.001.6-.056 1.286c-.033.44-.105.891-.217 1.337a5.5 5.5 0 0 1-.473 1.246c-.2.377-.478.72-.818 1.017a4 4 0 0 1-1.286.714c-.512.177-1.152.269-1.898.269-.178 0-.378-.006-.584-.023V1.514h.106c.189 0 .406-.011.64-.011.99 0 1.797.143 2.393.429.579.28 1.035.68 1.347 1.188.328.531.551 1.183.662 1.943.117.794.178 1.691.178 2.674zM86.06 9.72h-.524c-.1 0-.19.069-.212.171l-.027.126a7 7 0 0 1-.496 1.417 4.3 4.3 0 0 1-.79 1.12c-.306.309-.668.56-1.074.732q-.603.257-1.364.257h-2.605v-5.96h.84c.362 0 .663.063.891.183.234.12.434.291.59.497.167.223.306.48.406.777.112.32.206.663.29 1.006l.028.125a.22.22 0 0 0 .211.172h.523a.22.22 0 0 0 .218-.223V3.989a.22.22 0 0 0-.218-.223h-.528a.22.22 0 0 0-.212.177l-.028.131c-.078.4-.183.76-.306 1.08a2.7 2.7 0 0 1-.445.766 1.7 1.7 0 0 1-.629.457c-.262.109-.596.166-.99.166h-.64V1.56h2.51c.528 0 .974.103 1.33.297.367.206.673.452.901.726.234.28.423.571.551.868.14.309.234.566.29.76l.033.12c.028.092.112.16.206.16h.518a.22.22 0 0 0 .217-.222V.743a.22.22 0 0 0-.217-.223H74.115a.22.22 0 0 0-.218.223v.594c0 .12.095.223.218.223h1.458v11.989h-1.458a.22.22 0 0 0-.218.222v.595c0 .12.095.223.218.223h11.933a.22.22 0 0 0 .217-.223V9.949a.22.22 0 0 0-.217-.223h.011zM116.105 13.549h-1.475L108.958.13a.22.22 0 0 0-.201-.131h-.706a.22.22 0 0 0-.201.137l-5.36 13.412h-1.436a.22.22 0 0 0-.217.222v.595c0 .12.095.223.217.223h3.757a.22.22 0 0 0 .217-.223v-.595a.22.22 0 0 0-.217-.222h-1.213l1.703-4.229h3.863l1.781 4.229h-1.275a.22.22 0 0 0-.217.222v.595c0 .12.095.223.217.223h6.429a.22.22 0 0 0 .217-.223v-.595a.22.22 0 0 0-.217-.222zm-7.353-5.263h-3.045l1.481-3.709zM100.609 13.572h-1.291a54 54 0 0 1-.546-.972l-2.95-5.417q.234-.05.451-.109c.456-.125.88-.314 1.258-.56a3.2 3.2 0 0 0 .963-.988c.256-.417.384-.915.384-1.486 0-.703-.167-1.297-.496-1.771a3.6 3.6 0 0 0-1.207-1.098 5.1 5.1 0 0 0-1.559-.554c-1.119-.211-2.11-.166-3.089-.126-.484.018-.99.03-1.497.03h-2.906a.22.22 0 0 0-.217.222v.594c0 .12.095.223.217.223h1.459V13.55h-1.459a.22.22 0 0 0-.217.223v.594c0 .12.095.223.217.223h6.301a.22.22 0 0 0 .217-.223v-.594a.22.22 0 0 0-.217-.223h-1.458V8.08l3.35 6.366a.21.21 0 0 0 .19.114h4.102a.22.22 0 0 0 .217-.223v-.543a.22.22 0 0 0-.217-.223M92.967 1.52h.055q.184-.024.368-.023c.406 0 .74.052.99.16.229.097.401.234.53.429.139.211.244.485.305.823.067.365.1.817.1 1.337q-.002.472-.06.937a1.75 1.75 0 0 1-.245.714q-.175.283-.552.463c-.261.126-.645.189-1.13.189h-.367V1.526h.006z" stroke="#e82b4e" stroke-width="0.1" fill="#e82b4e"/>
</svg>